<?xml version="1.0"?>
<svg version="1.1" xmlns="http://www.w3.org/2000/svg" width="400px" height="110px" style=""><path fill="#bf7b0d" d="M44.81640625,58.369140625l0-2.255859375l0-2.314453125q0.029296875-2.34375,0.1904296875-4.4970703125t0.4541015625-3.5888671875q0.17578125-0.791015625,1.0546875-0.966796875t1.5234375-0.17578125q1.201171875,0,1.7724609375,0.29296875t0.7470703125,0.8349609375t0.146484375,1.2890625t-0.029296875,1.7138671875q0,1.376953125-0.05859375,3.837890625t-0.087890625,5.44921875l0,1.494140625q0,2.255859375,0.05859375,4.658203125q0.087890625,3.22265625,0.3369140625,6.1669921875t0.6884765625,5.302734375t1.23046875,3.6181640625q1.259765625-1.142578125,2.51953125-3.2080078125t2.40234375-4.6435546875t2.1826171875-5.4345703125t1.8896484375-5.5810546875t1.4501953125-5.126953125t0.8935546875-4.072265625q0.46875-2.40234375,0.6298828125-4.892578125t0.1611328125-5.537109375q0.908203125-1.083984375,1.40625-1.3623046875t1.58203125-0.2783203125q0.52734375,0,1.0693359375,0.087890625t1.0400390625,0.41015625l0.41015625,0.64453125l0,0.732421875q0,5.33203125-0.5126953125,10.8251953125t-1.083984375,11.044921875t-1.083984375,11.1328125t-0.5126953125,11.0888671875q0,0.849609375,0.0732421875,1.8017578125t0.3076171875,1.8017578125l-0.1171875,0.3515625q-0.41015625,0.673828125-1.34765625,0.849609375t-1.611328125,0.17578125q-1.435546875,0-2.1533203125-0.4248046875t-0.9521484375-1.171875t-0.205078125-1.728515625t0.029296875-2.1240234375q0-3.955078125,0.3515625-8.0419921875t0.849609375-8.0419921875q-0.46875,1.376953125-1.11328125,3.3251953125t-1.5087890625,3.896484375t-2.0068359375,3.57421875t-2.51953125,2.3291015625l0.05859375-0.05859375l-0.234375,0.1171875l0.05859375,0q-0.849609375,0.46875-1.5673828125,0.6298828125t-1.6845703125,0.1611328125q-1.93359375,0-3.2080078125-1.142578125t-2.0654296875-2.9443359375t-1.171875-4.04296875t-0.5419921875-4.4970703125t-0.1611328125-4.2919921875l0-3.3544921875q0-1.611328125-0.029296875-3.837890625z M55.24609375,81.689453125q0.05859375,0,0.05859375-0.05859375l0.05859375,0q-0.05859375,0.05859375-0.1171875,0.05859375z M76.47666015625,85.966796875l0.615234375-0.732421875q-0.1171875-4.921875-0.263671875-9.814453125t-0.146484375-9.7265625q0-6.005859375,0.7177734375-11.6162109375t1.4208984375-11.4990234375q0.05859375-0.3515625,0.3369140625-0.5712890625t0.6884765625-0.3662109375t0.8349609375-0.205078125t0.7763671875-0.05859375q0.46875,0,1.171875,0.17578125t1.40625,1.025390625q0,0.29296875,0.0439453125,0.5126953125t0.0439453125,0.5126953125q0,2.2265625-0.6005859375,4.775390625t-0.8056640625,4.892578125q-0.234375,2.87109375-0.322265625,5.68359375t-0.087890625,5.712890625l0.05859375,2.578125q0.5859375-0.732421875,1.669921875-1.875t2.34375-2.2119140625t2.51953125-1.8310546875t2.28515625-0.76171875q1.552734375,0,2.1533203125,0.87890625t0.6005859375,2.314453125q0,1.318359375-0.5712890625,2.75390625t-1.494140625,2.7978515625t-2.0947265625,2.4462890625t-2.314453125,1.611328125q1.552734375,1.93359375,3.1787109375,3.69140625t3.5595703125,3.310546875l0,0.673828125q-0.05859375,0.29296875-0.3662109375,0.439453125t-0.673828125,0.234375t-0.7177734375,0.1318359375t-0.5859375,0.0439453125q-1.435546875,0-2.7685546875-0.849609375t-2.490234375-2.080078125t-2.1826171875-2.607421875t-1.875-2.40234375q0.17578125,3.369140625,0.3955078125,6.7236328125t0.2197265625,6.7236328125q0,0.41015625-0.3662109375,0.6884765625t-0.849609375,0.4248046875t-0.9814453125,0.205078125t-0.8203125,0.05859375q-1.728515625,0-2.4462890625-0.6298828125t-1.2158203125-2.1826171875z M82.48251953125,72.16796875q0.732421875,0,1.7431640625-0.6298828125t2.0947265625-1.5673828125t2.021484375-1.9775390625t1.5087890625-1.9775390625t0.5712890625-1.5087890625t-0.791015625-0.5126953125q-0.29296875,0-1.201171875,0.849609375t-2.021484375,2.080078125t-2.2265625,2.666015625t-1.69921875,2.578125z M98.9962890625,71.494140625q0-0.5859375,0.1318359375-1.552734375t0.3076171875-1.9189453125t0.41015625-1.7724609375t0.556640625-1.0546875q0.234375-0.234375,0.8056640625-0.46875t1.201171875-0.3369140625t1.171875,0.087890625t0.6591796875,0.7763671875q-0.41015625,0.52734375-0.7470703125,1.8017578125t-0.5126953125,2.8271484375q-0.146484375,1.318359375-0.146484375,2.724609375l0,0.498046875q0.029296875,1.640625,0.29296875,3.017578125t0.8056640625,2.2705078125t1.5087890625,0.8935546875q2.05078125,0,3.75-1.8896484375t3.017578125-4.6142578125t2.314453125-5.7861328125t1.69921875-5.3466796875q0.17578125-0.673828125,0.8349609375-0.908203125t1.4208984375-0.1611328125t1.3623046875,0.3662109375t0.7177734375,0.703125q-0.5859375,4.921875-0.9228515625,9.84375t-0.3369140625,9.90234375q0,0.966796875,0.087890625,1.7724609375t-0.087890625,1.376953125t-0.7763671875,0.908203125t-1.9189453125,0.3369140625q-0.29296875,0-0.7470703125-0.05859375t-0.9375-0.1904296875t-0.8203125-0.3955078125t-0.3369140625-0.615234375q0-2.16796875,0.1611328125-4.453125t0.4541015625-4.423828125q-0.791015625,1.142578125-1.7431640625,2.2705078125t-2.0947265625,2.0361328125t-2.4609375,1.4501953125t-2.841796875,0.5419921875q-2.16796875,0-3.4130859375-1.025390625t-1.875-2.5634765625t-0.791015625-3.3544921875t-0.1611328125-3.515625z M126.55498046875,84.47265625q0-0.849609375,0.0732421875-1.787109375t0.1318359375-1.7578125l0.17578125-4.39453125q0.29296875-5.2734375,0.7177734375-10.37109375t0.7177734375-10.3125q0.17578125-2.87109375,0.263671875-5.6396484375t0.263671875-5.6396484375q-0.1171875-0.234375-0.1171875-0.322265625q0-0.41015625,0.3076171875-0.64453125t0.7177734375-0.3955078125t0.8642578125-0.2197265625t0.6884765625-0.05859375l0.673828125,0q0.908203125,0.1171875,1.318359375,0.5712890625t0.52734375,1.083984375t0.05859375,1.34765625t-0.05859375,1.3330078125q0,4.248046875-0.205078125,8.6572265625t-0.46875,8.84765625t-0.4833984375,8.876953125t-0.2197265625,8.7744140625l0,2.05078125q0,1.376953125-0.7763671875,1.81640625t-2.1533203125,0.439453125q-1.201171875,0-2.109375-0.52734375t-0.908203125-1.728515625z M139.992578125,75.2734375q0-2.05078125,0.4541015625-4.833984375t1.5380859375-5.2734375t2.8564453125-4.2333984375t4.4677734375-1.7431640625q2.51953125,0,3.779296875,1.4501953125t1.259765625,3.9111328125q0,1.611328125-0.6005859375,3.5302734375t-1.7138671875,3.6328125t-2.63671875,2.8564453125t-3.3984375,1.142578125l-0.76171875-0.05859375q0,0.791015625,0.234375,2.1240234375t0.6884765625,2.6513671875t1.171875,2.314453125t1.7431640625,0.99609375q1.494140625,0,2.87109375-1.201171875t2.607421875-2.666015625t2.28515625-2.666015625t1.93359375-1.201171875q0.46875,0,0.966796875,0.146484375t0.556640625,0.8203125q0,0.41015625-0.2197265625,0.673828125t-0.3955078125,0.5859375q-0.908203125,1.552734375-1.9775390625,2.958984375t-2.4169921875,2.548828125t-2.9443359375,1.8017578125t-3.5302734375,0.6591796875q-2.51953125,0-4.189453125-0.8935546875t-2.6953125-2.40234375t-1.4794921875-3.486328125t-0.4541015625-4.1455078125z M145.23671875,73.046875l0.8203125,0.732421875q0.5859375,0.52734375,1.171875,0.234375t1.0546875-1.0693359375t0.8642578125-1.9189453125t0.703125-2.34375t0.4541015625-2.34375t0.146484375-1.904296875l0-0.99609375t-0.087890625-1.0546875t-0.3076171875-0.8349609375t-0.6884765625-0.4248046875q-0.146484375-0.029296875-0.263671875-0.029296875q-0.99609375,0-1.69921875,1.259765625q-0.76171875,1.40625-1.23046875,3.4130859375t-0.673828125,4.1162109375t-0.263671875,3.1640625z M164.47509765625,84.47265625q0-0.849609375,0.0732421875-1.787109375t0.1318359375-1.7578125l0.17578125-4.39453125q0.29296875-5.2734375,0.7177734375-10.37109375t0.7177734375-10.3125q0.17578125-2.87109375,0.263671875-5.6396484375t0.263671875-5.6396484375q-0.1171875-0.234375-0.1171875-0.322265625q0-0.41015625,0.3076171875-0.64453125t0.7177734375-0.3955078125t0.8642578125-0.2197265625t0.6884765625-0.05859375l0.673828125,0q0.908203125,0.1171875,1.318359375,0.5712890625t0.52734375,1.083984375t0.05859375,1.34765625t-0.05859375,1.3330078125q0,4.248046875-0.205078125,8.6572265625t-0.46875,8.84765625t-0.4833984375,8.876953125t-0.2197265625,8.7744140625l0,2.05078125q0,1.376953125-0.7763671875,1.81640625t-2.1533203125,0.439453125q-1.201171875,0-2.109375-0.52734375t-0.908203125-1.728515625z M177.9126953125,75.2734375q0-2.05078125,0.4541015625-4.833984375t1.5380859375-5.2734375t2.8564453125-4.2333984375t4.4677734375-1.7431640625q2.51953125,0,3.779296875,1.4501953125t1.259765625,3.9111328125q0,1.611328125-0.6005859375,3.5302734375t-1.7138671875,3.6328125t-2.63671875,2.8564453125t-3.3984375,1.142578125l-0.76171875-0.05859375q0,0.791015625,0.234375,2.1240234375t0.6884765625,2.6513671875t1.171875,2.314453125t1.7431640625,0.99609375q1.494140625,0,2.87109375-1.201171875t2.607421875-2.666015625t2.28515625-2.666015625t1.93359375-1.201171875q0.46875,0,0.966796875,0.146484375t0.556640625,0.8203125q0,0.41015625-0.2197265625,0.673828125t-0.3955078125,0.5859375q-0.908203125,1.552734375-1.9775390625,2.958984375t-2.4169921875,2.548828125t-2.9443359375,1.8017578125t-3.5302734375,0.6591796875q-2.51953125,0-4.189453125-0.8935546875t-2.6953125-2.40234375t-1.4794921875-3.486328125t-0.4541015625-4.1455078125z M183.1568359375,73.046875l0.8203125,0.732421875q0.5859375,0.52734375,1.171875,0.234375t1.0546875-1.0693359375t0.8642578125-1.9189453125t0.703125-2.34375t0.4541015625-2.34375t0.146484375-1.904296875l0-0.99609375t-0.087890625-1.0546875t-0.3076171875-0.8349609375t-0.6884765625-0.4248046875q-0.146484375-0.029296875-0.263671875-0.029296875q-0.99609375,0-1.69921875,1.259765625q-0.76171875,1.40625-1.23046875,3.4130859375t-0.673828125,4.1162109375t-0.263671875,3.1640625z"/><path fill="#7d5704" d="M242,75.28c0,8.34-6.78,12.84-14.58,12.84c-3.6,0-7.86-0.66-11.46-1.92c-0.78-0.3-1.02-0.66-1.02-1.14c0-0.24,0-0.48,0.12-0.78l1.26-3.9c0.18-0.6,0.48-0.96,1.08-0.96c0.24,0,0.54,0.06,0.9,0.18c2.82,1.02,5.94,1.8,8.94,1.8c3.24,0,6.9-1.56,6.9-5.34c0-2.76-2.04-4.26-4.38-5.4l-7.8-3.9c-4.26-2.1-7.08-5.64-7.08-10.32c0-7.32,7.2-11.34,13.86-11.34c3.96,0,7.26,0.6,10.74,2.1c0.78,0.36,1.2,0.72,1.2,1.2c0,0.24-0.06,0.48-0.18,0.78l-1.44,3.66c-0.24,0.66-0.6,0.9-1.02,0.9c-0.3,0-0.6-0.12-0.96-0.24c-2.46-1.02-5.52-1.86-7.92-1.86c-2.82,0-6.06,1.2-6.06,4.56c0,2.46,2.28,3.9,4.26,4.86l6.66,3.24c4.74,2.28,7.98,5.46,7.98,10.98z M277.97,86.2c0,0.9-0.18,1.2-0.96,1.2l-5.28,0c-0.84,0-1.02-0.24-1.02-1.2l0-16.68c0-3.24-0.9-5.64-4.5-5.64c-2.34,0-5.34,1.26-7.2,2.88l0,19.44c0,0.9-0.24,1.2-1.14,1.2l-5.16,0c-0.72,0-0.96-0.3-0.96-1.08l0-39.66c0-1.08,0.48-1.38,1.32-1.5l4.14-0.54c0.24-0.06,0.54-0.06,0.78-0.06c0.66,0,1.02,0.3,1.02,1.14l0,15.06c2.52-2.1,6.3-3.24,9.48-3.24c6.72,0,9.48,4.26,9.48,10.74l0,17.94z M316.28,72.82c0,8.64-5.28,15.3-14.64,15.3c-9.78,0-14.28-6.6-14.28-15.36c0-8.64,5.28-15.24,14.64-15.24c9.78,0,14.28,6.48,14.28,15.3z M308.78,72.82c0-4.92-1.56-9.6-6.84-9.6c-5.34,0-7.08,4.62-7.08,9.42c0,4.92,1.5,9.78,6.84,9.78c5.28,0,7.08-4.68,7.08-9.6z M353.27,72.46c0,4.56-1.38,8.7-3.9,11.64c-2.22,2.52-5.34,4.08-9.24,4.08c-2.76,0-5.52-1.02-7.26-2.82l0,13.44c0,1.2-0.54,1.56-1.56,1.56l-4.2,0c-0.96,0-1.44-0.54-1.44-1.56l0-39.12c0-1.02,0.48-1.38,1.44-1.38l3.6,0c1.02,0,1.56,0.24,1.62,1.14l0.06,1.62c1.74-1.98,5.16-3.48,8.4-3.48c3.96,0,6.72,1.5,8.7,3.66c2.58,2.82,3.78,7.02,3.78,11.22z M345.71,72.82c0-2.82-0.54-5.28-1.74-6.96c-1.14-1.62-2.82-2.46-4.92-2.46c-2.22,0-4.98,1.44-6.18,2.94l0,13.08c1.2,1.62,3.6,2.94,5.88,2.94c2.1,0,3.78-0.96,4.8-2.22c1.5-1.86,2.16-4.38,2.16-7.32z"/></svg>
